<mxfile host="Electron" agent="Mozilla/5.0 (Windows NT 10.0; Win64; x64) AppleWebKit/537.36 (KHTML, like Gecko) draw.io/26.2.2 Chrome/134.0.6998.178 Electron/35.1.2 Safari/537.36" version="26.2.2">
  <diagram name="Page-1" id="pZPSAb8C-xnlexXrDz3T">
    <mxGraphModel dx="858" dy="521" grid="1" gridSize="10" guides="1" tooltips="1" connect="1" arrows="1" fold="1" page="1" pageScale="1" pageWidth="850" pageHeight="1100" math="0" shadow="0">
      <root>
        <mxCell id="0" />
        <mxCell id="1" parent="0" />
        <mxCell id="Z3dp1151A1_RT2jGu9Le-1" value="Quản lý sản phẩm" style="ellipse;whiteSpace=wrap;html=1;" vertex="1" parent="1">
          <mxGeometry x="500" y="360" width="120" height="80" as="geometry" />
        </mxCell>
        <mxCell id="Z3dp1151A1_RT2jGu9Le-2" value="Quản lý sản phẩm" style="shape=umlActor;verticalLabelPosition=bottom;verticalAlign=top;html=1;outlineConnect=0;" vertex="1" parent="1">
          <mxGeometry x="330" y="240" width="50" height="60" as="geometry" />
        </mxCell>
        <mxCell id="Z3dp1151A1_RT2jGu9Le-4" value="Đăng sản phẩm mới" style="ellipse;whiteSpace=wrap;html=1;" vertex="1" parent="1">
          <mxGeometry x="110" y="360" width="120" height="80" as="geometry" />
        </mxCell>
        <mxCell id="Z3dp1151A1_RT2jGu9Le-5" value="Chỉnh sửa sản phẩm&amp;nbsp;" style="ellipse;whiteSpace=wrap;html=1;" vertex="1" parent="1">
          <mxGeometry x="410" y="470" width="120" height="80" as="geometry" />
        </mxCell>
        <mxCell id="Z3dp1151A1_RT2jGu9Le-6" value="Xóa sản phẩm" style="ellipse;whiteSpace=wrap;html=1;" vertex="1" parent="1">
          <mxGeometry x="620" y="460" width="120" height="80" as="geometry" />
        </mxCell>
        <mxCell id="Z3dp1151A1_RT2jGu9Le-7" value="Giá sản phẩm" style="ellipse;whiteSpace=wrap;html=1;" vertex="1" parent="1">
          <mxGeometry x="480" y="620" width="120" height="80" as="geometry" />
        </mxCell>
        <mxCell id="Z3dp1151A1_RT2jGu9Le-8" value="Tổn kho" style="ellipse;whiteSpace=wrap;html=1;" vertex="1" parent="1">
          <mxGeometry x="305" y="620" width="120" height="80" as="geometry" />
        </mxCell>
        <mxCell id="Z3dp1151A1_RT2jGu9Le-10" value="&amp;lt;&amp;lt;include&amp;gt;&amp;gt;" style="html=1;verticalAlign=bottom;endArrow=open;dashed=1;endSize=8;curved=0;rounded=0;entryX=0.642;entryY=0.063;entryDx=0;entryDy=0;entryPerimeter=0;" edge="1" parent="1" source="Z3dp1151A1_RT2jGu9Le-5" target="Z3dp1151A1_RT2jGu9Le-8">
          <mxGeometry relative="1" as="geometry">
            <mxPoint x="470" y="510" as="sourcePoint" />
            <mxPoint x="390" y="510" as="targetPoint" />
          </mxGeometry>
        </mxCell>
        <mxCell id="Z3dp1151A1_RT2jGu9Le-11" value="&amp;lt;&amp;lt;include&amp;gt;&amp;gt;" style="html=1;verticalAlign=bottom;endArrow=open;dashed=1;endSize=8;curved=0;rounded=0;" edge="1" parent="1" source="Z3dp1151A1_RT2jGu9Le-1" target="Z3dp1151A1_RT2jGu9Le-5">
          <mxGeometry relative="1" as="geometry">
            <mxPoint x="520" y="468" as="sourcePoint" />
            <mxPoint x="585" y="380" as="targetPoint" />
          </mxGeometry>
        </mxCell>
        <mxCell id="Z3dp1151A1_RT2jGu9Le-12" value="&amp;lt;&amp;lt;include&amp;gt;&amp;gt;" style="html=1;verticalAlign=bottom;endArrow=open;dashed=1;endSize=8;curved=0;rounded=0;" edge="1" parent="1" source="Z3dp1151A1_RT2jGu9Le-1" target="Z3dp1151A1_RT2jGu9Le-6">
          <mxGeometry relative="1" as="geometry">
            <mxPoint x="399" y="654" as="sourcePoint" />
            <mxPoint x="464" y="566" as="targetPoint" />
          </mxGeometry>
        </mxCell>
        <mxCell id="Z3dp1151A1_RT2jGu9Le-13" value="&amp;lt;&amp;lt;include&amp;gt;&amp;gt;" style="html=1;verticalAlign=bottom;endArrow=open;dashed=1;endSize=8;curved=0;rounded=0;" edge="1" parent="1" source="Z3dp1151A1_RT2jGu9Le-5" target="Z3dp1151A1_RT2jGu9Le-7">
          <mxGeometry relative="1" as="geometry">
            <mxPoint x="451" y="555" as="sourcePoint" />
            <mxPoint x="377" y="645" as="targetPoint" />
          </mxGeometry>
        </mxCell>
        <mxCell id="Z3dp1151A1_RT2jGu9Le-14" value="" style="endArrow=none;html=1;rounded=0;" edge="1" parent="1" source="Z3dp1151A1_RT2jGu9Le-4">
          <mxGeometry width="50" height="50" relative="1" as="geometry">
            <mxPoint x="400" y="470" as="sourcePoint" />
            <mxPoint x="355" y="320" as="targetPoint" />
          </mxGeometry>
        </mxCell>
        <mxCell id="Z3dp1151A1_RT2jGu9Le-15" value="" style="endArrow=none;html=1;rounded=0;" edge="1" parent="1" target="Z3dp1151A1_RT2jGu9Le-1">
          <mxGeometry width="50" height="50" relative="1" as="geometry">
            <mxPoint x="360" y="320" as="sourcePoint" />
            <mxPoint x="450" y="420" as="targetPoint" />
          </mxGeometry>
        </mxCell>
      </root>
    </mxGraphModel>
  </diagram>
</mxfile>
